<svg width="170" height="38" viewBox="0 0 170 38" fill="none" xmlns="http://www.w3.org/2000/svg">
<path d="M34.1232 8.12763C30.755 3.2197 25.1006 0 18.6934 0C8.3693 0 0 8.35931 0 18.6711C0 20.1713 0.177151 21.6301 0.511681 23.028L10.0311 13.5199C10.9436 12.6085 12.4231 12.6085 13.3356 13.5199L21.03 21.2051L34.1232 8.12763Z" fill="#8794BA"/>
<path d="M36.345 12.5097L22.6823 26.1561C21.7698 27.0675 20.2903 27.0675 19.3778 26.1561L11.6834 18.4708L2.36862 27.7745C5.56641 33.483 11.6787 37.3421 18.6934 37.3421C29.0174 37.3421 37.3867 28.9828 37.3867 18.6711C37.3867 16.5121 37.0198 14.4387 36.345 12.5097Z" fill="#8794BA"/>
<path d="M50.384 15C49.9467 15 49.6107 14.8827 49.376 14.648C49.1413 14.4133 49.024 14.0773 49.024 13.64V5.08C49.024 4.64267 49.1413 4.30667 49.376 4.072C49.6107 3.83733 49.9467 3.72 50.384 3.72H53.616C54.864 3.72 55.936 3.94933 56.832 4.408C57.7387 4.856 58.432 5.50133 58.912 6.344C59.392 7.18667 59.632 8.18933 59.632 9.352C59.632 10.5253 59.392 11.5387 58.912 12.392C58.4427 13.2347 57.7547 13.88 56.848 14.328C55.952 14.776 54.8747 15 53.616 15H50.384ZM53.408 12.632C54.5067 12.632 55.328 12.3653 55.872 11.832C56.4267 11.288 56.704 10.4613 56.704 9.352C56.704 8.24267 56.4267 7.42133 55.872 6.888C55.328 6.35467 54.5067 6.088 53.408 6.088H51.968V12.632H53.408ZM71.8553 13.192C71.9513 13.3947 71.9993 13.592 71.9993 13.784C71.9993 14.136 71.8553 14.4347 71.5673 14.68C71.2899 14.9253 70.9699 15.048 70.6073 15.048C70.3619 15.048 70.1379 14.984 69.9353 14.856C69.7326 14.728 69.5726 14.536 69.4553 14.28L68.7353 12.664H63.5513L62.8153 14.28C62.6979 14.536 62.5326 14.728 62.3193 14.856C62.1166 14.984 61.8926 15.048 61.6473 15.048C61.2846 15.048 60.9539 14.9253 60.6553 14.68C60.3673 14.4347 60.2233 14.136 60.2233 13.784C60.2233 13.592 60.2713 13.3947 60.3673 13.192L64.5913 4.52C64.7299 4.232 64.9326 4.01333 65.1993 3.864C65.4766 3.704 65.7806 3.624 66.1113 3.624C66.4313 3.624 66.7299 3.704 67.0073 3.864C67.2846 4.01333 67.4926 4.232 67.6313 4.52L71.8553 13.192ZM64.5433 10.456H67.7433L66.1433 6.888L64.5433 10.456ZM77.2953 15.144C76.4419 15.144 75.6473 15.0533 74.9113 14.872C74.1859 14.68 73.5886 14.4187 73.1193 14.088C72.9379 13.9493 72.8046 13.8053 72.7193 13.656C72.6446 13.5067 72.6073 13.3147 72.6073 13.08C72.6073 12.76 72.7033 12.4827 72.8953 12.248C73.0873 12.0133 73.3113 11.896 73.5673 11.896C73.7059 11.896 73.8393 11.9173 73.9673 11.96C74.0953 12.0027 74.2553 12.0827 74.4473 12.2C74.8846 12.4453 75.3166 12.6213 75.7433 12.728C76.1806 12.8347 76.6713 12.888 77.2153 12.888C77.8446 12.888 78.3193 12.7973 78.6393 12.616C78.9699 12.424 79.1353 12.1467 79.1353 11.784C79.1353 11.5387 78.9806 11.3307 78.6713 11.16C78.3726 10.9787 77.7966 10.8027 76.9433 10.632C75.8873 10.408 75.0606 10.1413 74.4633 9.832C73.8659 9.52267 73.4446 9.16 73.1993 8.744C72.9646 8.31733 72.8473 7.80533 72.8473 7.208C72.8473 6.52533 73.0499 5.90667 73.4553 5.352C73.8606 4.79733 74.4153 4.36533 75.1193 4.056C75.8339 3.736 76.6339 3.576 77.5193 3.576C78.2979 3.576 78.9913 3.66133 79.5993 3.832C80.2073 4.00267 80.7619 4.26933 81.2633 4.632C81.4553 4.77067 81.5886 4.92 81.6633 5.08C81.7486 5.22933 81.7913 5.416 81.7913 5.64C81.7913 5.96 81.6953 6.23733 81.5033 6.472C81.3219 6.70667 81.1033 6.824 80.8472 6.824C80.7086 6.824 80.5806 6.808 80.4633 6.776C80.3459 6.73333 80.1806 6.648 79.9673 6.52C79.9139 6.488 79.7593 6.408 79.5033 6.28C79.2579 6.14133 78.9646 6.03467 78.6233 5.96C78.2926 5.87467 77.9299 5.832 77.5353 5.832C76.9913 5.832 76.5539 5.93867 76.2233 6.152C75.8926 6.35467 75.7273 6.62667 75.7273 6.968C75.7273 7.17067 75.7859 7.336 75.9033 7.464C76.0206 7.592 76.2393 7.72 76.5593 7.848C76.8793 7.96533 77.3539 8.088 77.9833 8.216C79.0073 8.44 79.8126 8.712 80.3993 9.032C80.9859 9.34133 81.4019 9.704 81.6473 10.12C81.8926 10.536 82.0153 11.0267 82.0153 11.592C82.0153 12.296 81.8179 12.92 81.4233 13.464C81.0286 13.9973 80.4739 14.4133 79.7593 14.712C79.0553 15 78.2339 15.144 77.2953 15.144ZM92.6083 3.64C93.0456 3.64 93.3923 3.77333 93.6483 4.04C93.9149 4.296 94.0483 4.64267 94.0483 5.08V13.64C94.0483 14.0773 93.9149 14.4293 93.6483 14.696C93.3923 14.9627 93.0456 15.096 92.6083 15.096C92.1709 15.096 91.8189 14.968 91.5523 14.712C91.2963 14.4453 91.1683 14.088 91.1683 13.64V10.44H86.5603V13.64C86.5603 14.0773 86.4269 14.4293 86.1603 14.696C85.9043 14.9627 85.5576 15.096 85.1203 15.096C84.6829 15.096 84.3309 14.968 84.0643 14.712C83.8083 14.4453 83.6803 14.088 83.6803 13.64V5.08C83.6803 4.64267 83.8083 4.296 84.0643 4.04C84.3309 3.77333 84.6829 3.64 85.1203 3.64C85.5576 3.64 85.9043 3.77333 86.1603 4.04C86.4269 4.296 86.5603 4.64267 86.5603 5.08V8.104H91.1683V5.08C91.1683 4.64267 91.2963 4.296 91.5523 4.04C91.8189 3.77333 92.1709 3.64 92.6083 3.64ZM103.67 9.144C104.331 9.34667 104.838 9.688 105.19 10.168C105.542 10.6373 105.718 11.2187 105.718 11.912C105.718 12.5307 105.553 13.0747 105.222 13.544C104.902 14.0027 104.438 14.36 103.83 14.616C103.233 14.872 102.529 15 101.718 15H97.4621C97.0248 15 96.6888 14.8827 96.4541 14.648C96.2195 14.4133 96.1021 14.0773 96.1021 13.64V5.08C96.1021 4.64267 96.2195 4.30667 96.4541 4.072C96.6888 3.83733 97.0248 3.72 97.4621 3.72H101.558C102.742 3.72 103.681 3.98667 104.374 4.52C105.078 5.04267 105.43 5.752 105.43 6.648C105.43 7.224 105.275 7.736 104.966 8.184C104.657 8.62133 104.225 8.94133 103.67 9.144ZM98.9661 8.152H101.062C101.617 8.152 102.022 8.06667 102.278 7.896C102.534 7.72533 102.662 7.45333 102.662 7.08C102.662 6.68533 102.534 6.39733 102.278 6.216C102.022 6.03467 101.617 5.944 101.062 5.944H98.9661V8.152ZM101.35 12.776C101.937 12.776 102.353 12.6853 102.598 12.504C102.854 12.312 102.982 12.0027 102.982 11.576C102.982 11.1493 102.854 10.8453 102.598 10.664C102.353 10.472 101.937 10.376 101.35 10.376H98.9661V12.776H101.35ZM112.587 15.144C111.435 15.144 110.432 14.9093 109.579 14.44C108.736 13.96 108.086 13.288 107.627 12.424C107.168 11.5493 106.939 10.5253 106.939 9.352C106.939 8.17867 107.168 7.16 107.627 6.296C108.086 5.42133 108.736 4.74933 109.579 4.28C110.432 3.81067 111.435 3.576 112.587 3.576C113.739 3.576 114.736 3.81067 115.579 4.28C116.432 4.74933 117.083 5.42133 117.531 6.296C117.99 7.16 118.219 8.17867 118.219 9.352C118.219 10.5253 117.99 11.5493 117.531 12.424C117.072 13.288 116.416 13.96 115.563 14.44C114.72 14.9093 113.728 15.144 112.587 15.144ZM112.587 12.888C113.44 12.888 114.107 12.5893 114.587 11.992C115.067 11.384 115.307 10.504 115.307 9.352C115.307 8.2 115.062 7.32533 114.571 6.728C114.091 6.13067 113.43 5.832 112.587 5.832C111.734 5.832 111.067 6.13067 110.587 6.728C110.107 7.31467 109.867 8.18933 109.867 9.352C109.867 10.5147 110.107 11.3947 110.587 11.992C111.067 12.5893 111.734 12.888 112.587 12.888ZM130.418 13.192C130.514 13.3947 130.562 13.592 130.562 13.784C130.562 14.136 130.418 14.4347 130.13 14.68C129.852 14.9253 129.532 15.048 129.17 15.048C128.924 15.048 128.7 14.984 128.498 14.856C128.295 14.728 128.135 14.536 128.018 14.28L127.298 12.664H122.114L121.378 14.28C121.26 14.536 121.095 14.728 120.882 14.856C120.679 14.984 120.455 15.048 120.21 15.048C119.847 15.048 119.516 14.9253 119.218 14.68C118.93 14.4347 118.786 14.136 118.786 13.784C118.786 13.592 118.834 13.3947 118.93 13.192L123.154 4.52C123.292 4.232 123.495 4.01333 123.762 3.864C124.039 3.704 124.343 3.624 124.674 3.624C124.994 3.624 125.292 3.704 125.57 3.864C125.847 4.01333 126.055 4.232 126.194 4.52L130.418 13.192ZM123.106 10.456H126.306L124.706 6.888L123.106 10.456ZM141.278 13.128C141.47 13.416 141.566 13.688 141.566 13.944C141.566 14.2853 141.422 14.5733 141.134 14.808C140.856 15.032 140.531 15.144 140.158 15.144C139.902 15.144 139.662 15.0853 139.438 14.968C139.214 14.8507 139.022 14.6747 138.862 14.44L136.782 11.4C136.632 11.1867 136.472 11.032 136.302 10.936C136.142 10.8293 135.95 10.776 135.726 10.776H134.686V13.64C134.686 14.088 134.558 14.4453 134.302 14.712C134.046 14.968 133.694 15.096 133.246 15.096C132.798 15.096 132.44 14.968 132.174 14.712C131.918 14.4453 131.79 14.088 131.79 13.64V5.08C131.79 4.64267 131.907 4.30667 132.142 4.072C132.376 3.83733 132.712 3.72 133.15 3.72H137.166C138.531 3.72 139.555 4.01867 140.238 4.616C140.931 5.20267 141.278 6.056 141.278 7.176C141.278 8.02933 141.043 8.75467 140.574 9.352C140.104 9.93867 139.443 10.3333 138.59 10.536C138.942 10.5893 139.246 10.7067 139.502 10.888C139.768 11.0693 140.03 11.3413 140.286 11.704L141.278 13.128ZM136.702 8.568C137.352 8.568 137.816 8.46667 138.094 8.264C138.382 8.06133 138.526 7.73067 138.526 7.272C138.526 6.80267 138.382 6.46667 138.094 6.264C137.816 6.05067 137.352 5.944 136.702 5.944H134.654V8.568H136.702ZM144.462 15C144.025 15 143.689 14.8827 143.454 14.648C143.219 14.4133 143.102 14.0773 143.102 13.64V5.08C143.102 4.64267 143.219 4.30667 143.454 4.072C143.689 3.83733 144.025 3.72 144.462 3.72H147.694C148.942 3.72 150.014 3.94933 150.91 4.408C151.817 4.856 152.51 5.50133 152.99 6.344C153.47 7.18667 153.71 8.18933 153.71 9.352C153.71 10.5253 153.47 11.5387 152.99 12.392C152.521 13.2347 151.833 13.88 150.926 14.328C150.03 14.776 148.953 15 147.694 15H144.462ZM147.486 12.632C148.585 12.632 149.406 12.3653 149.95 11.832C150.505 11.288 150.782 10.4613 150.782 9.352C150.782 8.24267 150.505 7.42133 149.95 6.888C149.406 6.35467 148.585 6.088 147.486 6.088H146.046V12.632H147.486ZM59.824 32.192C59.92 32.3947 59.968 32.592 59.968 32.784C59.968 33.136 59.824 33.4347 59.536 33.68C59.2587 33.9253 58.9387 34.048 58.576 34.048C58.3307 34.048 58.1067 33.984 57.904 33.856C57.7013 33.728 57.5413 33.536 57.424 33.28L56.704 31.664H51.52L50.784 33.28C50.6667 33.536 50.5013 33.728 50.288 33.856C50.0853 33.984 49.8613 34.048 49.616 34.048C49.2533 34.048 48.9227 33.9253 48.624 33.68C48.336 33.4347 48.192 33.136 48.192 32.784C48.192 32.592 48.24 32.3947 48.336 32.192L52.56 23.52C52.6987 23.232 52.9013 23.0133 53.168 22.864C53.4453 22.704 53.7493 22.624 54.08 22.624C54.4 22.624 54.6987 22.704 54.976 22.864C55.2533 23.0133 55.4613 23.232 55.6 23.52L59.824 32.192ZM52.512 29.456H55.712L54.112 25.888L52.512 29.456ZM69.8679 22.64C70.2732 22.64 70.6039 22.7733 70.8599 23.04C71.1265 23.3067 71.2599 23.6533 71.2599 24.08V32.64C71.2599 33.0773 71.1319 33.4293 70.8759 33.696C70.6199 33.9627 70.2892 34.096 69.8839 34.096C69.4039 34.096 69.0412 33.936 68.7959 33.616L63.9319 27.552V32.64C63.9319 33.0773 63.8092 33.4293 63.5639 33.696C63.3185 33.9627 62.9879 34.096 62.5719 34.096C62.1665 34.096 61.8359 33.9627 61.5799 33.696C61.3239 33.4293 61.1959 33.0773 61.1959 32.64V24.08C61.1959 23.6533 61.3239 23.3067 61.5799 23.04C61.8359 22.7733 62.1665 22.64 62.5719 22.64C63.0305 22.64 63.3879 22.8 63.6439 23.12L68.5079 29.168V24.08C68.5079 23.6427 68.6305 23.296 68.8759 23.04C69.1319 22.7733 69.4625 22.64 69.8679 22.64ZM84.1053 32.192C84.2013 32.3947 84.2493 32.592 84.2493 32.784C84.2493 33.136 84.1053 33.4347 83.8173 33.68C83.5399 33.9253 83.2199 34.048 82.8573 34.048C82.6119 34.048 82.3879 33.984 82.1853 33.856C81.9826 33.728 81.8226 33.536 81.7053 33.28L80.9853 31.664H75.8013L75.0653 33.28C74.9479 33.536 74.7826 33.728 74.5693 33.856C74.3666 33.984 74.1426 34.048 73.8973 34.048C73.5346 34.048 73.2039 33.9253 72.9053 33.68C72.6173 33.4347 72.4733 33.136 72.4733 32.784C72.4733 32.592 72.5213 32.3947 72.6173 32.192L76.8413 23.52C76.9799 23.232 77.1826 23.0133 77.4493 22.864C77.7266 22.704 78.0306 22.624 78.3613 22.624C78.6813 22.624 78.9799 22.704 79.2573 22.864C79.5346 23.0133 79.7426 23.232 79.8813 23.52L84.1053 32.192ZM76.7933 29.456H79.9933L78.3933 25.888L76.7933 29.456ZM86.8371 34C86.3998 34 86.0638 33.8827 85.8291 33.648C85.5945 33.4133 85.4771 33.072 85.4771 32.624V24.08C85.4771 23.6427 85.6051 23.296 85.8611 23.04C86.1278 22.7733 86.4851 22.64 86.9331 22.64C87.3918 22.64 87.7545 22.7733 88.0211 23.04C88.2878 23.296 88.4211 23.6427 88.4211 24.08V31.616H92.1011C93.0291 31.616 93.4931 32.016 93.4931 32.816C93.4931 33.2213 93.3758 33.52 93.1411 33.712C92.9171 33.904 92.5705 34 92.1011 34H86.8371ZM99.6258 23.104C99.9031 22.784 100.228 22.624 100.602 22.624C100.954 22.624 101.268 22.7627 101.546 23.04C101.834 23.3067 101.978 23.616 101.978 23.968C101.978 24.2773 101.86 24.5707 101.626 24.848L98.2658 28.736V32.64C98.2658 33.1093 98.1271 33.472 97.8498 33.728C97.5831 33.9733 97.2364 34.096 96.8098 34.096C96.3724 34.096 96.0151 33.9733 95.7378 33.728C95.4604 33.472 95.3218 33.1093 95.3218 32.64V28.736L91.9938 24.848C91.7484 24.5707 91.6258 24.272 91.6258 23.952C91.6258 23.6 91.7644 23.2907 92.0418 23.024C92.3191 22.7573 92.6338 22.624 92.9858 22.624C93.3591 22.624 93.6844 22.784 93.9618 23.104L96.7938 26.464L99.6258 23.104ZM107.4 34.08C106.952 34.08 106.589 33.952 106.312 33.696C106.045 33.4293 105.912 33.0773 105.912 32.64V25.104H103.656C103.186 25.104 102.834 25.008 102.6 24.816C102.376 24.6133 102.264 24.3093 102.264 23.904C102.264 23.4987 102.376 23.2 102.6 23.008C102.834 22.816 103.186 22.72 103.656 22.72H111.144C111.613 22.72 111.96 22.816 112.184 23.008C112.418 23.2 112.536 23.4987 112.536 23.904C112.536 24.3093 112.418 24.6133 112.184 24.816C111.96 25.008 111.613 25.104 111.144 25.104H108.888V32.64C108.888 33.0773 108.749 33.4293 108.472 33.696C108.205 33.952 107.848 34.08 107.4 34.08ZM114.933 34.096C114.485 34.096 114.128 33.968 113.861 33.712C113.605 33.4453 113.477 33.088 113.477 32.64V24.08C113.477 23.6427 113.605 23.296 113.861 23.04C114.128 22.7733 114.485 22.64 114.933 22.64C115.392 22.64 115.754 22.7733 116.021 23.04C116.288 23.296 116.421 23.6427 116.421 24.08V32.64C116.421 33.088 116.288 33.4453 116.021 33.712C115.754 33.968 115.392 34.096 114.933 34.096ZM123.806 34.144C122.675 34.144 121.683 33.9093 120.83 33.44C119.987 32.9707 119.331 32.2987 118.862 31.424C118.403 30.5493 118.174 29.5253 118.174 28.352C118.174 27.1893 118.403 26.1707 118.862 25.296C119.331 24.4213 119.987 23.7493 120.83 23.28C121.683 22.8107 122.675 22.576 123.806 22.576C125.16 22.576 126.35 22.9333 127.374 23.648C127.555 23.776 127.683 23.9147 127.758 24.064C127.843 24.2133 127.886 24.4053 127.886 24.64C127.886 24.9707 127.79 25.2533 127.598 25.488C127.416 25.712 127.192 25.824 126.926 25.824C126.766 25.824 126.622 25.8027 126.494 25.76C126.366 25.7067 126.216 25.6267 126.046 25.52C125.672 25.296 125.32 25.136 124.99 25.04C124.659 24.944 124.318 24.896 123.966 24.896C123.016 24.896 122.307 25.184 121.838 25.76C121.379 26.3253 121.15 27.1893 121.15 28.352C121.15 29.5253 121.379 30.4 121.838 30.976C122.307 31.5413 123.016 31.824 123.966 31.824C124.286 31.824 124.595 31.776 124.894 31.68C125.192 31.5733 125.576 31.4133 126.046 31.2C126.27 31.0827 126.435 31.0027 126.542 30.96C126.648 30.9173 126.776 30.896 126.926 30.896C127.192 30.896 127.416 31.0133 127.598 31.248C127.79 31.472 127.886 31.7493 127.886 32.08C127.886 32.304 127.843 32.496 127.758 32.656C127.683 32.8053 127.555 32.944 127.374 33.072C126.35 33.7867 125.16 34.144 123.806 34.144ZM133.295 34.144C132.442 34.144 131.647 34.0533 130.911 33.872C130.186 33.68 129.589 33.4187 129.119 33.088C128.938 32.9493 128.805 32.8053 128.719 32.656C128.645 32.5067 128.607 32.3147 128.607 32.08C128.607 31.76 128.703 31.4827 128.895 31.248C129.087 31.0133 129.311 30.896 129.567 30.896C129.706 30.896 129.839 30.9173 129.967 30.96C130.095 31.0027 130.255 31.0827 130.447 31.2C130.885 31.4453 131.317 31.6213 131.743 31.728C132.181 31.8347 132.671 31.888 133.215 31.888C133.845 31.888 134.319 31.7973 134.639 31.616C134.97 31.424 135.135 31.1467 135.135 30.784C135.135 30.5387 134.981 30.3307 134.671 30.16C134.373 29.9787 133.797 29.8027 132.943 29.632C131.887 29.408 131.061 29.1413 130.463 28.832C129.866 28.5227 129.445 28.16 129.199 27.744C128.965 27.3173 128.847 26.8053 128.847 26.208C128.847 25.5253 129.05 24.9067 129.455 24.352C129.861 23.7973 130.415 23.3653 131.119 23.056C131.834 22.736 132.634 22.576 133.519 22.576C134.298 22.576 134.991 22.6613 135.599 22.832C136.207 23.0027 136.762 23.2693 137.263 23.632C137.455 23.7707 137.589 23.92 137.663 24.08C137.749 24.2293 137.791 24.416 137.791 24.64C137.791 24.96 137.695 25.2373 137.503 25.472C137.322 25.7067 137.103 25.824 136.847 25.824C136.709 25.824 136.581 25.808 136.463 25.776C136.346 25.7333 136.181 25.648 135.967 25.52C135.914 25.488 135.759 25.408 135.503 25.28C135.258 25.1413 134.965 25.0347 134.623 24.96C134.293 24.8747 133.93 24.832 133.535 24.832C132.991 24.832 132.554 24.9387 132.223 25.152C131.893 25.3547 131.727 25.6267 131.727 25.968C131.727 26.1707 131.786 26.336 131.903 26.464C132.021 26.592 132.239 26.72 132.559 26.848C132.879 26.9653 133.354 27.088 133.983 27.216C135.007 27.44 135.813 27.712 136.399 28.032C136.986 28.3413 137.402 28.704 137.647 29.12C137.893 29.536 138.015 30.0267 138.015 30.592C138.015 31.296 137.818 31.92 137.423 32.464C137.029 32.9973 136.474 33.4133 135.759 33.712C135.055 34 134.234 34.144 133.295 34.144Z" fill="#8794BA"/>
</svg>
