<svg width="237" height="66" viewBox="0 0 237 66" fill="none" xmlns="http://www.w3.org/2000/svg">
<path d="M80.576 26C79.92 26 79.416 25.824 79.064 25.472C78.712 25.12 78.536 24.616 78.536 23.96V11.12C78.536 10.464 78.712 9.96 79.064 9.608C79.416 9.256 79.92 9.08 80.576 9.08H85.424C87.296 9.08 88.904 9.424 90.248 10.112C91.608 10.784 92.648 11.752 93.368 13.016C94.088 14.28 94.448 15.784 94.448 17.528C94.448 19.288 94.088 20.808 93.368 22.088C92.664 23.352 91.632 24.32 90.272 24.992C88.928 25.664 87.312 26 85.424 26H80.576ZM85.112 22.448C86.76 22.448 87.992 22.048 88.808 21.248C89.64 20.432 90.056 19.192 90.056 17.528C90.056 15.864 89.64 14.632 88.808 13.832C87.992 13.032 86.76 12.632 85.112 12.632H82.952V22.448H85.112ZM112.783 23.288C112.927 23.592 112.999 23.888 112.999 24.176C112.999 24.704 112.783 25.152 112.351 25.52C111.935 25.888 111.455 26.072 110.911 26.072C110.543 26.072 110.207 25.976 109.903 25.784C109.599 25.592 109.359 25.304 109.183 24.92L108.103 22.496H100.327L99.2229 24.92C99.0469 25.304 98.7989 25.592 98.4789 25.784C98.1749 25.976 97.8389 26.072 97.4709 26.072C96.9269 26.072 96.4309 25.888 95.9829 25.52C95.5509 25.152 95.3349 24.704 95.3349 24.176C95.3349 23.888 95.4069 23.592 95.5509 23.288L101.887 10.28C102.095 9.848 102.399 9.52 102.799 9.296C103.215 9.056 103.671 8.936 104.167 8.936C104.647 8.936 105.095 9.056 105.511 9.296C105.927 9.52 106.239 9.848 106.447 10.28L112.783 23.288ZM101.815 19.184H106.615L104.215 13.832L101.815 19.184ZM120.943 26.216C119.663 26.216 118.471 26.08 117.367 25.808C116.279 25.52 115.383 25.128 114.679 24.632C114.407 24.424 114.207 24.208 114.079 23.984C113.967 23.76 113.911 23.472 113.911 23.12C113.911 22.64 114.055 22.224 114.343 21.872C114.631 21.52 114.967 21.344 115.351 21.344C115.559 21.344 115.759 21.376 115.951 21.44C116.143 21.504 116.383 21.624 116.671 21.8C117.327 22.168 117.975 22.432 118.615 22.592C119.271 22.752 120.007 22.832 120.823 22.832C121.767 22.832 122.479 22.696 122.959 22.424C123.455 22.136 123.703 21.72 123.703 21.176C123.703 20.808 123.471 20.496 123.007 20.24C122.559 19.968 121.695 19.704 120.415 19.448C118.831 19.112 117.591 18.712 116.695 18.248C115.799 17.784 115.167 17.24 114.799 16.616C114.447 15.976 114.271 15.208 114.271 14.312C114.271 13.288 114.575 12.36 115.183 11.528C115.791 10.696 116.623 10.048 117.679 9.584C118.751 9.104 119.951 8.864 121.279 8.864C122.447 8.864 123.487 8.992 124.399 9.248C125.311 9.504 126.143 9.904 126.895 10.448C127.183 10.656 127.383 10.88 127.495 11.12C127.623 11.344 127.687 11.624 127.687 11.96C127.687 12.44 127.543 12.856 127.255 13.208C126.983 13.56 126.655 13.736 126.271 13.736C126.063 13.736 125.871 13.712 125.695 13.664C125.519 13.6 125.271 13.472 124.951 13.28C124.871 13.232 124.639 13.112 124.255 12.92C123.887 12.712 123.447 12.552 122.935 12.44C122.439 12.312 121.895 12.248 121.303 12.248C120.487 12.248 119.831 12.408 119.335 12.728C118.839 13.032 118.591 13.44 118.591 13.952C118.591 14.256 118.679 14.504 118.855 14.696C119.031 14.888 119.359 15.08 119.839 15.272C120.319 15.448 121.031 15.632 121.975 15.824C123.511 16.16 124.719 16.568 125.599 17.048C126.479 17.512 127.103 18.056 127.471 18.68C127.839 19.304 128.023 20.04 128.023 20.888C128.023 21.944 127.727 22.88 127.135 23.696C126.543 24.496 125.711 25.12 124.639 25.568C123.583 26 122.351 26.216 120.943 26.216ZM143.912 8.96C144.568 8.96 145.088 9.16 145.472 9.56C145.872 9.944 146.072 10.464 146.072 11.12V23.96C146.072 24.616 145.872 25.144 145.472 25.544C145.088 25.944 144.568 26.144 143.912 26.144C143.256 26.144 142.728 25.952 142.328 25.568C141.944 25.168 141.752 24.632 141.752 23.96V19.16H134.84V23.96C134.84 24.616 134.64 25.144 134.24 25.544C133.856 25.944 133.336 26.144 132.68 26.144C132.024 26.144 131.496 25.952 131.096 25.568C130.712 25.168 130.52 24.632 130.52 23.96V11.12C130.52 10.464 130.712 9.944 131.096 9.56C131.496 9.16 132.024 8.96 132.68 8.96C133.336 8.96 133.856 9.16 134.24 9.56C134.64 9.944 134.84 10.464 134.84 11.12V15.656H141.752V11.12C141.752 10.464 141.944 9.944 142.328 9.56C142.728 9.16 143.256 8.96 143.912 8.96ZM160.505 17.216C161.497 17.52 162.257 18.032 162.785 18.752C163.313 19.456 163.577 20.328 163.577 21.368C163.577 22.296 163.329 23.112 162.833 23.816C162.353 24.504 161.657 25.04 160.745 25.424C159.849 25.808 158.793 26 157.577 26H151.193C150.537 26 150.033 25.824 149.681 25.472C149.329 25.12 149.153 24.616 149.153 23.96V11.12C149.153 10.464 149.329 9.96 149.681 9.608C150.033 9.256 150.537 9.08 151.193 9.08H157.337C159.113 9.08 160.521 9.48 161.561 10.28C162.617 11.064 163.145 12.128 163.145 13.472C163.145 14.336 162.913 15.104 162.449 15.776C161.985 16.432 161.337 16.912 160.505 17.216ZM153.449 15.728H156.593C157.425 15.728 158.033 15.6 158.417 15.344C158.801 15.088 158.993 14.68 158.993 14.12C158.993 13.528 158.801 13.096 158.417 12.824C158.033 12.552 157.425 12.416 156.593 12.416H153.449V15.728ZM157.025 22.664C157.905 22.664 158.529 22.528 158.897 22.256C159.281 21.968 159.473 21.504 159.473 20.864C159.473 20.224 159.281 19.768 158.897 19.496C158.529 19.208 157.905 19.064 157.025 19.064H153.449V22.664H157.025ZM173.881 26.216C172.153 26.216 170.649 25.864 169.369 25.16C168.105 24.44 167.129 23.432 166.441 22.136C165.753 20.824 165.409 19.288 165.409 17.528C165.409 15.768 165.753 14.24 166.441 12.944C167.129 11.632 168.105 10.624 169.369 9.92C170.649 9.216 172.153 8.864 173.881 8.864C175.609 8.864 177.105 9.216 178.369 9.92C179.649 10.624 180.625 11.632 181.297 12.944C181.985 14.24 182.329 15.768 182.329 17.528C182.329 19.288 181.985 20.824 181.297 22.136C180.609 23.432 179.625 24.44 178.345 25.16C177.081 25.864 175.593 26.216 173.881 26.216ZM173.881 22.832C175.161 22.832 176.161 22.384 176.881 21.488C177.601 20.576 177.961 19.256 177.961 17.528C177.961 15.8 177.593 14.488 176.857 13.592C176.137 12.696 175.145 12.248 173.881 12.248C172.601 12.248 171.601 12.696 170.881 13.592C170.161 14.472 169.801 15.784 169.801 17.528C169.801 19.272 170.161 20.592 170.881 21.488C171.601 22.384 172.601 22.832 173.881 22.832ZM200.627 23.288C200.771 23.592 200.843 23.888 200.843 24.176C200.843 24.704 200.627 25.152 200.195 25.52C199.779 25.888 199.299 26.072 198.755 26.072C198.387 26.072 198.051 25.976 197.747 25.784C197.443 25.592 197.203 25.304 197.027 24.92L195.947 22.496H188.171L187.067 24.92C186.891 25.304 186.643 25.592 186.323 25.784C186.019 25.976 185.683 26.072 185.315 26.072C184.771 26.072 184.275 25.888 183.827 25.52C183.395 25.152 183.179 24.704 183.179 24.176C183.179 23.888 183.251 23.592 183.395 23.288L189.731 10.28C189.939 9.848 190.243 9.52 190.643 9.296C191.059 9.056 191.515 8.936 192.011 8.936C192.491 8.936 192.939 9.056 193.355 9.296C193.771 9.52 194.083 9.848 194.291 10.28L200.627 23.288ZM189.659 19.184H194.459L192.059 13.832L189.659 19.184ZM216.916 23.192C217.204 23.624 217.348 24.032 217.348 24.416C217.348 24.928 217.132 25.36 216.7 25.712C216.284 26.048 215.796 26.216 215.236 26.216C214.852 26.216 214.492 26.128 214.156 25.952C213.82 25.776 213.532 25.512 213.292 25.16L210.172 20.6C209.948 20.28 209.708 20.048 209.452 19.904C209.212 19.744 208.924 19.664 208.588 19.664H207.028V23.96C207.028 24.632 206.836 25.168 206.452 25.568C206.068 25.952 205.54 26.144 204.868 26.144C204.196 26.144 203.66 25.952 203.26 25.568C202.876 25.168 202.684 24.632 202.684 23.96V11.12C202.684 10.464 202.86 9.96 203.212 9.608C203.564 9.256 204.068 9.08 204.724 9.08H210.748C212.796 9.08 214.332 9.528 215.356 10.424C216.396 11.304 216.916 12.584 216.916 14.264C216.916 15.544 216.564 16.632 215.86 17.528C215.156 18.408 214.164 19 212.884 19.304C213.412 19.384 213.868 19.56 214.252 19.832C214.652 20.104 215.044 20.512 215.428 21.056L216.916 23.192ZM210.052 16.352C211.028 16.352 211.724 16.2 212.14 15.896C212.572 15.592 212.788 15.096 212.788 14.408C212.788 13.704 212.572 13.2 212.14 12.896C211.724 12.576 211.028 12.416 210.052 12.416H206.98V16.352H210.052ZM221.693 26C221.037 26 220.533 25.824 220.181 25.472C219.829 25.12 219.653 24.616 219.653 23.96V11.12C219.653 10.464 219.829 9.96 220.181 9.608C220.533 9.256 221.037 9.08 221.693 9.08H226.541C228.413 9.08 230.021 9.424 231.365 10.112C232.725 10.784 233.765 11.752 234.485 13.016C235.205 14.28 235.565 15.784 235.565 17.528C235.565 19.288 235.205 20.808 234.485 22.088C233.781 23.352 232.749 24.32 231.389 24.992C230.045 25.664 228.429 26 226.541 26H221.693ZM226.229 22.448C227.877 22.448 229.109 22.048 229.925 21.248C230.757 20.432 231.173 19.192 231.173 17.528C231.173 15.864 230.757 14.632 229.925 13.832C229.109 13.032 227.877 12.632 226.229 12.632H224.069V22.448H226.229ZM94.736 51.288C94.88 51.592 94.952 51.888 94.952 52.176C94.952 52.704 94.736 53.152 94.304 53.52C93.888 53.888 93.408 54.072 92.864 54.072C92.496 54.072 92.16 53.976 91.856 53.784C91.552 53.592 91.312 53.304 91.136 52.92L90.056 50.496H82.28L81.176 52.92C81 53.304 80.752 53.592 80.432 53.784C80.128 53.976 79.792 54.072 79.424 54.072C78.88 54.072 78.384 53.888 77.936 53.52C77.504 53.152 77.288 52.704 77.288 52.176C77.288 51.888 77.36 51.592 77.504 51.288L83.84 38.28C84.048 37.848 84.352 37.52 84.752 37.296C85.168 37.056 85.624 36.936 86.12 36.936C86.6 36.936 87.048 37.056 87.464 37.296C87.88 37.52 88.192 37.848 88.4 38.28L94.736 51.288ZM83.768 47.184H88.568L86.168 41.832L83.768 47.184ZM109.802 36.96C110.41 36.96 110.906 37.16 111.29 37.56C111.69 37.96 111.89 38.48 111.89 39.12V51.96C111.89 52.616 111.698 53.144 111.314 53.544C110.93 53.944 110.434 54.144 109.826 54.144C109.106 54.144 108.562 53.904 108.194 53.424L100.898 44.328V51.96C100.898 52.616 100.714 53.144 100.346 53.544C99.9778 53.944 99.4818 54.144 98.8578 54.144C98.2498 54.144 97.7538 53.944 97.3698 53.544C96.9858 53.144 96.7938 52.616 96.7938 51.96V39.12C96.7938 38.48 96.9858 37.96 97.3698 37.56C97.7538 37.16 98.2498 36.96 98.8578 36.96C99.5458 36.96 100.082 37.2 100.466 37.68L107.762 46.752V39.12C107.762 38.464 107.946 37.944 108.314 37.56C108.698 37.16 109.194 36.96 109.802 36.96ZM131.158 51.288C131.302 51.592 131.374 51.888 131.374 52.176C131.374 52.704 131.158 53.152 130.726 53.52C130.31 53.888 129.83 54.072 129.286 54.072C128.918 54.072 128.582 53.976 128.278 53.784C127.974 53.592 127.734 53.304 127.558 52.92L126.478 50.496H118.702L117.598 52.92C117.422 53.304 117.174 53.592 116.854 53.784C116.55 53.976 116.214 54.072 115.846 54.072C115.302 54.072 114.806 53.888 114.358 53.52C113.926 53.152 113.71 52.704 113.71 52.176C113.71 51.888 113.782 51.592 113.926 51.288L120.262 38.28C120.47 37.848 120.774 37.52 121.174 37.296C121.59 37.056 122.046 36.936 122.542 36.936C123.022 36.936 123.47 37.056 123.886 37.296C124.302 37.52 124.614 37.848 124.822 38.28L131.158 51.288ZM120.19 47.184H124.99L122.59 41.832L120.19 47.184ZM135.256 54C134.6 54 134.096 53.824 133.744 53.472C133.392 53.12 133.216 52.608 133.216 51.936V39.12C133.216 38.464 133.408 37.944 133.792 37.56C134.192 37.16 134.728 36.96 135.4 36.96C136.088 36.96 136.632 37.16 137.032 37.56C137.432 37.944 137.632 38.464 137.632 39.12V50.424H143.152C144.544 50.424 145.24 51.024 145.24 52.224C145.24 52.832 145.064 53.28 144.712 53.568C144.376 53.856 143.856 54 143.152 54H135.256ZM154.439 37.656C154.855 37.176 155.343 36.936 155.903 36.936C156.431 36.936 156.903 37.144 157.319 37.56C157.751 37.96 157.967 38.424 157.967 38.952C157.967 39.416 157.791 39.856 157.439 40.272L152.399 46.104V51.96C152.399 52.664 152.191 53.208 151.775 53.592C151.375 53.96 150.855 54.144 150.215 54.144C149.559 54.144 149.023 53.96 148.607 53.592C148.191 53.208 147.983 52.664 147.983 51.96V46.104L142.991 40.272C142.623 39.856 142.439 39.408 142.439 38.928C142.439 38.4 142.647 37.936 143.063 37.536C143.479 37.136 143.951 36.936 144.479 36.936C145.039 36.936 145.527 37.176 145.943 37.656L150.191 42.696L154.439 37.656ZM166.1 54.12C165.428 54.12 164.884 53.928 164.468 53.544C164.068 53.144 163.868 52.616 163.868 51.96V40.656H160.484C159.78 40.656 159.252 40.512 158.9 40.224C158.564 39.92 158.396 39.464 158.396 38.856C158.396 38.248 158.564 37.8 158.9 37.512C159.252 37.224 159.78 37.08 160.484 37.08H171.716C172.42 37.08 172.94 37.224 173.276 37.512C173.628 37.8 173.804 38.248 173.804 38.856C173.804 39.464 173.628 39.92 173.276 40.224C172.94 40.512 172.42 40.656 171.716 40.656H168.332V51.96C168.332 52.616 168.124 53.144 167.708 53.544C167.308 53.928 166.772 54.12 166.1 54.12ZM177.4 54.144C176.728 54.144 176.192 53.952 175.792 53.568C175.408 53.168 175.216 52.632 175.216 51.96V39.12C175.216 38.464 175.408 37.944 175.792 37.56C176.192 37.16 176.728 36.96 177.4 36.96C178.088 36.96 178.632 37.16 179.032 37.56C179.432 37.944 179.632 38.464 179.632 39.12V51.96C179.632 52.632 179.432 53.168 179.032 53.568C178.632 53.952 178.088 54.144 177.4 54.144ZM190.708 54.216C189.012 54.216 187.524 53.864 186.244 53.16C184.98 52.456 183.996 51.448 183.292 50.136C182.604 48.824 182.26 47.288 182.26 45.528C182.26 43.784 182.604 42.256 183.292 40.944C183.996 39.632 184.98 38.624 186.244 37.92C187.524 37.216 189.012 36.864 190.708 36.864C192.74 36.864 194.524 37.4 196.06 38.472C196.332 38.664 196.524 38.872 196.636 39.096C196.764 39.32 196.828 39.608 196.828 39.96C196.828 40.456 196.684 40.88 196.396 41.232C196.124 41.568 195.788 41.736 195.388 41.736C195.148 41.736 194.932 41.704 194.74 41.64C194.548 41.56 194.324 41.44 194.068 41.28C193.508 40.944 192.98 40.704 192.484 40.56C191.988 40.416 191.476 40.344 190.948 40.344C189.524 40.344 188.46 40.776 187.756 41.64C187.068 42.488 186.724 43.784 186.724 45.528C186.724 47.288 187.068 48.6 187.756 49.464C188.46 50.312 189.524 50.736 190.948 50.736C191.428 50.736 191.892 50.664 192.34 50.52C192.788 50.36 193.364 50.12 194.068 49.8C194.404 49.624 194.652 49.504 194.812 49.44C194.972 49.376 195.164 49.344 195.388 49.344C195.788 49.344 196.124 49.52 196.396 49.872C196.684 50.208 196.828 50.624 196.828 51.12C196.828 51.456 196.764 51.744 196.636 51.984C196.524 52.208 196.332 52.416 196.06 52.608C194.524 53.68 192.74 54.216 190.708 54.216ZM204.943 54.216C203.663 54.216 202.471 54.08 201.367 53.808C200.279 53.52 199.383 53.128 198.679 52.632C198.407 52.424 198.207 52.208 198.079 51.984C197.967 51.76 197.911 51.472 197.911 51.12C197.911 50.64 198.055 50.224 198.343 49.872C198.631 49.52 198.967 49.344 199.351 49.344C199.559 49.344 199.759 49.376 199.951 49.44C200.143 49.504 200.383 49.624 200.671 49.8C201.327 50.168 201.975 50.432 202.615 50.592C203.271 50.752 204.007 50.832 204.823 50.832C205.767 50.832 206.479 50.696 206.959 50.424C207.455 50.136 207.703 49.72 207.703 49.176C207.703 48.808 207.471 48.496 207.007 48.24C206.559 47.968 205.695 47.704 204.415 47.448C202.831 47.112 201.591 46.712 200.695 46.248C199.799 45.784 199.167 45.24 198.799 44.616C198.447 43.976 198.271 43.208 198.271 42.312C198.271 41.288 198.575 40.36 199.183 39.528C199.791 38.696 200.623 38.048 201.679 37.584C202.751 37.104 203.951 36.864 205.279 36.864C206.447 36.864 207.487 36.992 208.399 37.248C209.311 37.504 210.143 37.904 210.895 38.448C211.183 38.656 211.383 38.88 211.495 39.12C211.623 39.344 211.687 39.624 211.687 39.96C211.687 40.44 211.543 40.856 211.255 41.208C210.983 41.56 210.655 41.736 210.271 41.736C210.063 41.736 209.871 41.712 209.695 41.664C209.519 41.6 209.271 41.472 208.951 41.28C208.871 41.232 208.639 41.112 208.255 40.92C207.887 40.712 207.447 40.552 206.935 40.44C206.439 40.312 205.895 40.248 205.303 40.248C204.487 40.248 203.831 40.408 203.335 40.728C202.839 41.032 202.591 41.44 202.591 41.952C202.591 42.256 202.679 42.504 202.855 42.696C203.031 42.888 203.359 43.08 203.839 43.272C204.319 43.448 205.031 43.632 205.975 43.824C207.511 44.16 208.719 44.568 209.599 45.048C210.479 45.512 211.103 46.056 211.471 46.68C211.839 47.304 212.023 48.04 212.023 48.888C212.023 49.944 211.727 50.88 211.135 51.696C210.543 52.496 209.711 53.12 208.639 53.568C207.583 54 206.351 54.216 204.943 54.216Z" fill="white"/>
<path d="M60.3107 14.3651C54.3577 5.69063 44.3639 0 33.0394 0C14.7923 0 0 14.7746 0 33C0 35.6515 0.313103 38.23 0.904367 40.7006L17.7293 23.8957C19.3422 22.2848 21.9571 22.2848 23.5699 23.8957L37.1694 37.4789L60.3107 14.3651Z" fill="#EF2A82"/>
<path d="M64.2376 22.1102L40.0897 46.2293C38.4768 47.8402 35.8619 47.8402 34.2491 46.2293L20.6496 32.6461L4.18639 49.0897C9.83831 59.1793 20.6414 66 33.0394 66C51.2866 66 66.0789 51.2254 66.0789 33C66.0789 29.1841 65.4304 25.5196 64.2376 22.1102Z" fill="#EF2A82"/>
</svg>
